<svg 
	xmlns="http://www.w3.org/2000/svg" 
	viewBox="0 0 261 91">
	<title>Logo_SmartHotel220</title>
	<path 
		d="M17.46,19q11.43,0,11.43,4.72a3.47,3.47,0,0,1-.59,2.09,7.63,7.63,0,0,1-2.23,1.79,3.91,3.91,0,0,0-1.82,2.31,27.92,27.92,0,0,0-.38,5.79c0,1.7.32,2.76.95,3.15a3.43,3.43,0,0,0,1.67.43c.74,0,2.49.08,5.25.08a16,16,0,0,0,4.69-.4c.61-.27.92-.94.92-2a34.93,34.93,0,0,0-.44-6.74,3.74,3.74,0,0,0-1.72-2.6A7.93,7.93,0,0,1,33.06,26a2.68,2.68,0,0,1-.51-1.71,3.89,3.89,0,0,1,1.14-2.72,5.68,5.68,0,0,1,3-1.67A41.83,41.83,0,0,1,46.21,19c4.49,0,7.81.41,9.94,1.23s3.21,2.09,3.21,3.83a3.52,3.52,0,0,1-2.27,3.29,4.74,4.74,0,0,0-1.87,1.27,5.57,5.57,0,0,0-.7,2.25q-.15.91-.36,8.13t-.22,11.46q0,7.44.55,9.45a3.26,3.26,0,0,0,.66,1.46,13.94,13.94,0,0,0,2.3,1.47,2.5,2.5,0,0,1,1.39,2.34q0,2.79-3.31,4T44.78,70.48c-4.34,0-7.56-.43-9.63-1.28Q32.33,68,32.33,65.58a3.59,3.59,0,0,1,2.16-3.26,4,4,0,0,0,1.45-1.18A7.76,7.76,0,0,0,36.69,59a36.58,36.58,0,0,0,.66-7.54c0-1.54-.23-2.49-.68-2.86S35,48,33.14,48c-4.37,0-7.16.25-8.35.74-.49.19-.8.77-.92,1.72a34.92,34.92,0,0,0-.22,4.32q0,4.17,1.17,6a6.6,6.6,0,0,0,1.91,1.51,3.07,3.07,0,0,1,1.54,2.89c0,1.71-1.19,3-3.56,3.92a29.75,29.75,0,0,1-10.14,1.35,32.26,32.26,0,0,1-9.82-1.24,6.13,6.13,0,0,1-2.58-1.56,3.2,3.2,0,0,1-.93-2.22,2.71,2.71,0,0,1,.58-1.86,10,10,0,0,1,2.57-1.69,3.11,3.11,0,0,0,1.44-1.32,8.16,8.16,0,0,0,.65-2.71A93.13,93.13,0,0,0,7,46.68c0-.86,0-1.87,0-3-.1-5.86-.15-9.2-.15-10a9.48,9.48,0,0,0-.53-4.15,7.18,7.18,0,0,0-3-2.22,2.46,2.46,0,0,1-1.62-2.3q0-3.7,7.18-5.13A43.39,43.39,0,0,1,17.46,19Z" 
		style="fill:#fff"/>
	<path 
		d="M38,56.25A5,5,0,0,0,36,52a26,26,0,0,0-7.07-3.14,50.18,50.18,0,0,1-8.08-3.25q-8.11-4.38-8.11-11.81a11.44,11.44,0,0,1,2.18-6.89,14.16,14.16,0,0,1,6.24-4.73,23.64,23.64,0,0,1,9.15-1.7,21.42,21.42,0,0,1,9.09,1.85,14.44,14.44,0,0,1,6.2,5.22,13.68,13.68,0,0,1,2.21,7.65H38a6.39,6.39,0,0,0-2.07-5.08,8.46,8.46,0,0,0-5.79-1.82,9.06,9.06,0,0,0-5.59,1.52,4.81,4.81,0,0,0-2,4,4.58,4.58,0,0,0,2.34,3.89,26.5,26.5,0,0,0,6.89,2.95Q40.14,43.17,44,46.9a12.44,12.44,0,0,1,3.83,9.29,11.47,11.47,0,0,1-4.68,9.7Q38.44,69.4,30.53,69.4a24.32,24.32,0,0,1-10-2,15.86,15.86,0,0,1-6.89-5.51,14.12,14.12,0,0,1-2.37-8.11H21.1q0,7.88,9.43,7.88A9.16,9.16,0,0,0,36,60.23,4.64,4.64,0,0,0,38,56.25Z" 
		style="fill:#fff;stroke:#253748;stroke-miterlimit:10"/>
	<path 
		d="M98.71,49.94a1.62,1.62,0,0,0-.79-1.45,8.43,8.43,0,0,0-2.6-.88,13.21,13.21,0,0,1-3-1,4,4,0,0,1-2.66-3.74,4.22,4.22,0,0,1,1.72-3.43,6.9,6.9,0,0,1,4.4-1.37,7.16,7.16,0,0,1,4.59,1.4,4.47,4.47,0,0,1,1.75,3.65H98.53a2.21,2.21,0,0,0-.76-1.71,2.94,2.94,0,0,0-2-.68,3.09,3.09,0,0,0-1.91.55,1.69,1.69,0,0,0-.74,1.45A1.44,1.44,0,0,0,93.79,44a9.53,9.53,0,0,0,2.78.92,13.11,13.11,0,0,1,3.29,1.09,4.82,4.82,0,0,1,1.77,1.53,3.89,3.89,0,0,1,.58,2.17,4.14,4.14,0,0,1-1.77,3.47,7.61,7.61,0,0,1-4.65,1.32,8.18,8.18,0,0,1-3.47-.7A5.7,5.7,0,0,1,90,51.91a4.57,4.57,0,0,1-.85-2.66h3.46a2.49,2.49,0,0,0,1,2,3.71,3.71,0,0,0,2.33.68A3.6,3.6,0,0,0,98,51.34,1.66,1.66,0,0,0,98.71,49.94Z" 
		style="fill:#fff"/>
	<path 
		d="M108.65,38.4l.11,1.66a5.69,5.69,0,0,1,4.57-2,4.38,4.38,0,0,1,4.35,2.43,5.61,5.61,0,0,1,4.86-2.43,4.91,4.91,0,0,1,3.9,1.45,6.33,6.33,0,0,1,1.32,4.27V54.25H124.2V43.94a3.12,3.12,0,0,0-.66-2.21,2.89,2.89,0,0,0-2.19-.71,3,3,0,0,0-2,.65,3.55,3.55,0,0,0-1.08,1.71l0,10.87h-3.56V43.82a2.54,2.54,0,0,0-2.86-2.8,3.13,3.13,0,0,0-3,1.75V54.25H105.3V38.4Z" 
		style="fill:#fff"/>
	<path 
		d="M140.88,54.25a5.47,5.47,0,0,1-.41-1.48,5.54,5.54,0,0,1-4.16,1.77,5.6,5.6,0,0,1-3.9-1.36,4.37,4.37,0,0,1-1.5-3.37,4.5,4.5,0,0,1,1.88-3.89,9.13,9.13,0,0,1,5.38-1.35h2.18v-1a2.81,2.81,0,0,0-.68-2,2.71,2.71,0,0,0-2.1-.74,3.11,3.11,0,0,0-2,.61A1.87,1.87,0,0,0,134.8,43h-3.56a3.94,3.94,0,0,1,.87-2.44,5.7,5.7,0,0,1,2.35-1.78,8.23,8.23,0,0,1,3.32-.64,6.59,6.59,0,0,1,4.43,1.4,5,5,0,0,1,1.7,3.93v7.15a8.11,8.11,0,0,0,.6,3.41v.25ZM137,51.69a4,4,0,0,0,2-.52,3.42,3.42,0,0,0,1.4-1.37v-3h-1.92a5.26,5.26,0,0,0-3,.69,2.25,2.25,0,0,0-1,2,2.07,2.07,0,0,0,.69,1.63A2.65,2.65,0,0,0,137,51.69Z" 
		style="fill:#fff"/>
	<path 
		d="M155.94,41.65a8.61,8.61,0,0,0-1.45-.11,3.27,3.27,0,0,0-3.3,1.87V54.25h-3.56V38.4H151l.09,1.77a4,4,0,0,1,3.57-2.06,3.46,3.46,0,0,1,1.26.2Z" 
		style="fill:#fff"/>
	<path 
		d="M163.38,34.55V38.4h2.8V41h-2.8v8.84a2,2,0,0,0,.36,1.32,1.7,1.7,0,0,0,1.28.4,5.4,5.4,0,0,0,1.25-.15v2.76a9,9,0,0,1-2.35.33q-4.09,0-4.1-4.52V41h-2.61V38.4h2.61V34.55Z" 
		style="fill:#fff"/>
	<path 
		d="M173.71,40.1a5.42,5.42,0,0,1,8-.44,7,7,0,0,1,1.36,4.59v10h-4.95V44.36a2.78,2.78,0,0,0-.51-1.85,2.2,2.2,0,0,0-1.75-.59,2.38,2.38,0,0,0-2.15,1V54.25h-4.94V31.75h4.94Z" 
		style="fill:#fff"/>
	<path 
		d="M185.2,46.18a9.33,9.33,0,0,1,.92-4.23,6.64,6.64,0,0,1,2.65-2.85,8,8,0,0,1,4.06-1,7.29,7.29,0,0,1,5.61,2.2,8.49,8.49,0,0,1,2.05,6v.18a8.22,8.22,0,0,1-2.06,5.88,7.3,7.3,0,0,1-5.57,2.17,7.37,7.37,0,0,1-5.44-2,7.92,7.92,0,0,1-2.21-5.5Zm4.93.31a5.88,5.88,0,0,0,.69,3.22,2.3,2.3,0,0,0,2,1q2.63,0,2.69-4v-.5q0-4.26-2.72-4.26c-1.65,0-2.55,1.22-2.68,3.67Z" 
		style="fill:#fff"/>
	<path 
		d="M208.25,34.46V38.4h2.61v3.43h-2.61v7.25a1.87,1.87,0,0,0,.32,1.24,1.72,1.72,0,0,0,1.28.36,7,7,0,0,0,1.23-.09v3.53a9.22,9.22,0,0,1-2.78.42,5.19,5.19,0,0,1-3.77-1.2,4.92,4.92,0,0,1-1.21-3.65V41.83h-2V38.4h2V34.46Z" 
		style="fill:#fff"/>
	<path 
		d="M220.47,54.54a8.13,8.13,0,0,1-5.9-2.17,7.49,7.49,0,0,1-2.26-5.66V46.3a9.75,9.75,0,0,1,.9-4.3,6.54,6.54,0,0,1,2.63-2.87,7.92,7.92,0,0,1,4.1-1,6.84,6.84,0,0,1,5.27,2.07A8.14,8.14,0,0,1,227.15,46v1.92h-9.82A3.6,3.6,0,0,0,218.49,50a3.45,3.45,0,0,0,2.32.76,4.42,4.42,0,0,0,3.66-1.64l2.25,2.67a6.22,6.22,0,0,1-2.61,2A8.88,8.88,0,0,1,220.47,54.54Zm-.56-12.62c-1.44,0-2.3.95-2.58,2.87h5v-.38a2.44,2.44,0,0,0-.6-1.84A2.37,2.37,0,0,0,219.91,41.92Z" 
		style="fill:#fff"/>
	<path 
		d="M234.34,54.25h-5V31.75h5Z" 
		style="fill:#fff"/>
	<path 
		d="M243.8,42.25h-6.94v-1.5l3.2-3.37a3.77,3.77,0,0,0,1.18-2.14,1.44,1.44,0,0,0-.28-1,1,1,0,0,0-.81-.34,1,1,0,0,0-.86.45A1.84,1.84,0,0,0,239,35.5h-2.31a3.36,3.36,0,0,1,.46-1.7,3.29,3.29,0,0,1,1.27-1.21,3.83,3.83,0,0,1,1.82-.44,3.7,3.7,0,0,1,2.49.75,2.67,2.67,0,0,1,.87,2.14,3.21,3.21,0,0,1-.22,1.14,5.16,5.16,0,0,1-.68,1.17A16,16,0,0,1,241.17,39l-1.28,1.48h3.91Z" 
		style="fill:#fff"/>
	<path 
		d="M251.91,42.25H245v-1.5l3.2-3.37a3.84,3.84,0,0,0,1.18-2.14,1.5,1.5,0,0,0-.28-1,1,1,0,0,0-.82-.34,1,1,0,0,0-.85.45,1.84,1.84,0,0,0-.33,1.12h-2.31a3.26,3.26,0,0,1,.46-1.7,3.22,3.22,0,0,1,1.27-1.21,3.8,3.8,0,0,1,1.82-.44,3.69,3.69,0,0,1,2.48.75,2.64,2.64,0,0,1,.88,2.14,3.21,3.21,0,0,1-.22,1.14,5.57,5.57,0,0,1-.68,1.17A17.34,17.34,0,0,1,249.28,39L248,40.47h3.92Z" 
		style="fill:#fff"/>
	<path 
		d="M260,38.18a4.76,4.76,0,0,1-.9,3.11,3.53,3.53,0,0,1-5.12,0,4.75,4.75,0,0,1-.91-3.11V36.36a4.78,4.78,0,0,1,.9-3.11,3.55,3.55,0,0,1,5.13,0,4.78,4.78,0,0,1,.9,3.11Zm-2.3-2.11a3.47,3.47,0,0,0-.28-1.6.93.93,0,0,0-.89-.53.91.91,0,0,0-.86.49,3.29,3.29,0,0,0-.29,1.49v2.54a3.5,3.5,0,0,0,.28,1.63,1,1,0,0,0,1.75,0,3.33,3.33,0,0,0,.29-1.58Z" 
		style="fill:#fff"/>
	<rect 
		x="74" 
		width="2" 
		height="91" 
		style="fill:#fff"/>
</svg>